<svg version="1.1" id="Layer_1" xmlns="http://www.w3.org/2000/svg" xmlns:xlink="http://www.w3.org/1999/xlink" x="0px" y="0px" viewBox="0 0 500 500" style="width: 188px;" xml:space="preserve" data-imageid="qr-code-64-a4395" imageName="QR Code" class="illustrations_image">
<style type="text/css">
	.st0_qr-code-64-a4395{fill:#FFFFFF;}
	.st1_qr-code-64-a4395{fill:#231F20;}
	.st2_qr-code-64-a4395{fill:#D1D3D4;}
	.st3_qr-code-64-a4395{fill:#68E1FD;}
</style>
<g id="Hands_qr-code-64-a4395">
	<path class="st0_qr-code-64-a4395" d="M437,345.9c0,0,5.3-124.5,2.6-135.3s-26.8-61.2-34.6-70.2s-34.7-15.8-45.8-18.4s-46.3,2.4-43.7,12.1&#10;&#9;&#9;s33.4,16.4,33.4,16.4s-0.4,96,0,115.5s20.7,94.8,20.7,94.8L437,345.9z"/>
	<path class="st1_qr-code-64-a4395" d="M369.6,361.5c-0.3,0-0.6-0.2-0.7-0.5c-0.8-3.1-20.3-75.6-20.7-95c-0.4-18.5,0-107,0-114.9&#10;&#9;&#9;c-4.3-1-30.8-7.3-33.3-16.7c-0.4-1.8,0.1-3.7,1.5-4.9c4.4-4.5,15.8-6.8,20.5-7.5c8.8-1.4,17.8-1.6,22.4-0.5&#10;&#9;&#9;c24.6,5.8,40.5,12.3,46.1,18.6c7.7,8.7,32.1,59.2,34.8,70.5c2.6,10.8-2.4,130.4-2.6,135.5c0,0.3-0.2,0.6-0.5,0.7l-67.4,14.8&#10;&#9;&#9;L369.6,361.5z M351.2,122c-11.6,0-28.8,3.1-33.8,8.3c-1.1,0.9-1.5,2.3-1.2,3.6c2.5,9.2,32.5,15.8,32.8,15.9&#10;&#9;&#9;c0.3,0.1,0.6,0.3,0.6,0.7c0,1-0.4,96.2,0,115.5c0.3,18.2,18.5,86.6,20.5,94l66.2-14.6c0.4-8.9,5.1-124.4,2.6-134.6&#10;&#9;&#9;c-2.7-11.2-26.9-61.3-34.5-69.9c-5.4-6.1-21.1-12.4-45.4-18.2C356.5,122.2,353.9,121.9,351.2,122z M437,345.9L437,345.9z"/>
	<path class="st0_qr-code-64-a4395" d="M63,345.9c0,0-5.3-124.5-2.6-135.3s26.8-61.2,34.6-70.2s34.7-15.8,45.7-18.4s46.3,2.4,43.7,12.1&#10;&#9;&#9;S151,150.4,151,150.4s0.4,96,0,115.5s-20.7,94.8-20.7,94.8L63,345.9z"/>
	<path class="st1_qr-code-64-a4395" d="M130.4,361.5h-0.2l-67.4-14.8c-0.3-0.1-0.5-0.3-0.5-0.7c-0.2-5.1-5.2-124.7-2.6-135.5&#10;&#9;&#9;c2.8-11.3,27.1-61.8,34.8-70.5c5.6-6.3,21.5-12.8,46.1-18.6c4.6-1.1,13.6-0.9,22.4,0.5c4.7,0.8,16.2,3,20.5,7.5&#10;&#9;&#9;c1.4,1.2,2,3.1,1.5,4.9c-2.6,9.4-29,15.7-33.3,16.7c0,7.9,0.3,96.5,0,115c-0.4,19.3-19.9,91.9-20.7,95&#10;&#9;&#9;C131,361.3,130.7,361.5,130.4,361.5z M63.7,345.3l66.2,14.6c2-7.4,20.1-75.8,20.5-94c0.4-19.2,0-114.5,0-115.5&#10;&#9;&#9;c0-0.3,0.2-0.6,0.6-0.7c0.3-0.1,30.3-6.7,32.8-15.9c0.3-1.3-0.1-2.7-1.2-3.6c-6.3-6.6-32.2-9.9-41.6-7.6&#10;&#9;&#9;c-24.3,5.8-40,12.1-45.4,18.2c-7.6,8.6-31.8,58.7-34.6,69.9C58.5,221,63.3,336.4,63.7,345.3z"/>
</g>
<g id="Smartphone_qr-code-64-a4395">
	<rect x="170.9" y="136.3" class="st1_qr-code-64-a4395" width="19.8" height="2.3"/>
	<path class="st1_qr-code-64-a4395" d="M190.7,139.4h-19.8c-0.4,0-0.7-0.3-0.7-0.7c0,0,0,0,0,0v-2.3c0-0.4,0.3-0.7,0.7-0.7l0,0h19.8&#10;&#9;&#9;c0.4,0,0.7,0.3,0.7,0.7c0,0,0,0,0,0v2.3C191.4,139,191.1,139.3,190.7,139.4z M171.6,138H190v-1h-18.4V138z"/>
	<path class="st1_qr-code-64-a4395" d="M111,259.7V148.3c0-6,4.9-10.8,10.8-10.8h256.3c6,0,10.8,4.9,10.8,10.8v111.3c0,6-4.9,10.8-10.8,10.8H121.9&#10;&#9;&#9;C115.9,270.5,111,265.7,111,259.7z"/>
	<path class="st1_qr-code-64-a4395" d="M373.9,271.2H126.2c-8.8,0-15.9-7.1-15.9-15.9V152.7c0-8.8,7.1-15.9,15.9-15.9h247.7c8.8,0,15.9,7.1,15.9,15.9&#10;&#9;&#9;v102.7C389.7,264.1,382.6,271.2,373.9,271.2z M126.2,138.2c-8,0-14.5,6.5-14.5,14.5v102.7c0,8,6.5,14.5,14.5,14.5h247.6&#10;&#9;&#9;c8,0,14.5-6.5,14.5-14.5V152.7c0-8-6.5-14.5-14.5-14.5L126.2,138.2z"/>
	<rect x="146.3" y="144.4" class="st0_qr-code-64-a4395" width="209.3" height="119.3"/>
	<path class="st2_qr-code-64-a4395" d="M372.4,215.3c-6.2,0-11.3-5-11.3-11.3c0-6.2,5-11.3,11.3-11.3c6.2,0,11.3,5,11.3,11.3&#10;&#9;&#9;C383.7,210.2,378.6,215.3,372.4,215.3z M372.4,194.1c-5.5,0-9.9,4.4-9.9,9.9s4.4,9.9,9.9,9.9c5.5,0,9.9-4.4,9.9-9.9c0,0,0,0,0,0&#10;&#9;&#9;C382.3,198.6,377.8,194.1,372.4,194.1z"/>
	<path class="st2_qr-code-64-a4395" d="M127.2,214v-20c0-0.7,0.5-1.2,1.2-1.2h1c0.7,0,1.2,0.5,1.2,1.2v20c0,0.7-0.5,1.2-1.2,1.2h-1&#10;&#9;&#9;C127.7,215.2,127.2,214.7,127.2,214z"/>
	<circle class="st2_qr-code-64-a4395" cx="129.7" cy="226" r="2.5"/>
	<circle class="st2_qr-code-64-a4395" cx="121.2" cy="204" r="1.9"/>
</g>
<g id="Thumbs_qr-code-64-a4395">
	<path class="st0_qr-code-64-a4395" d="M134.2,350.6c0,0,17.6-42.9,20.8-66.2c4.1-30.8,7.7-108.7,0.5-124.6c-6.9-15.3-26.3,0.6-27,14.1&#10;&#9;&#9;s-1.8,36.1-11.6,56.2c-3.7,7.6-6.4,15.5-8.2,23.8"/>
	<path class="st1_qr-code-64-a4395" d="M134.2,351.3c-0.1,0-0.2,0-0.3,0c-0.4-0.1-0.5-0.5-0.4-0.9c0,0,0,0,0,0c0.2-0.4,17.6-43,20.8-66&#10;&#9;&#9;c4.4-32.6,7.4-109.1,0.6-124.2c-2-4.5-5.3-6.4-9.5-5.7c-7.6,1.4-15.7,11.2-16.1,19.5v0.2c-0.7,13.5-1.8,36.1-11.7,56.3&#10;&#9;&#9;c-3.7,7.5-6.4,15.4-8.1,23.6c0,0.4-0.4,0.7-0.8,0.6c-0.4,0-0.7-0.4-0.6-0.8c0,0,0-0.1,0-0.1c1.8-8.3,4.5-16.4,8.2-24&#10;&#9;&#9;c9.7-19.9,10.9-42.4,11.6-55.8v-0.2c0.5-8.9,9-19.2,17.2-20.8c4.9-0.9,8.8,1.4,11.1,6.5c7.2,15.9,3.9,92.6-0.5,124.9&#10;&#9;&#9;c-3.1,23.2-20.7,66-20.8,66.4C134.7,351.1,134.5,351.3,134.2,351.3z"/>
	<path class="st1_qr-code-64-a4395" d="M158.8,378.7l-6.6-60.1l-95.6,3.7c0,0-2.5,30.5-3.6,56.4H158.8z"/>
	<path class="st1_qr-code-64-a4395" d="M158.8,379.4H52.9c-0.2,0-0.4-0.1-0.5-0.2c-0.1-0.1-0.2-0.3-0.2-0.5c1.1-25.7,3.6-56.1,3.6-56.5&#10;&#9;&#9;c0-0.4,0.3-0.6,0.7-0.6l95.6-3.7c0.4,0,0.7,0.3,0.7,0.6l6.6,60.1c0,0.2,0,0.4-0.2,0.5C159.1,379.3,158.9,379.4,158.8,379.4z&#10;&#9;&#9; M53.6,378H158l-6.4-58.7L57.2,323C56.8,327.4,54.7,354.5,53.6,378z"/>
	<path class="st0_qr-code-64-a4395" d="M365.8,350.6c0,0-17.6-42.9-20.8-66.2c-4.1-30.8-7.7-108.7-0.5-124.6c6.9-15.3,26.3,0.6,27,14.1&#10;&#9;&#9;s1.8,36.1,11.6,56.2c3.7,7.6,6.4,15.5,8.2,23.8"/>
	<path class="st1_qr-code-64-a4395" d="M365.8,351.3c-0.3,0-0.5-0.2-0.6-0.4c-0.2-0.4-17.7-43.2-20.8-66.4c-4.4-32.3-7.6-109-0.5-124.9&#10;&#9;&#9;c2.3-5.1,6.2-7.4,11.1-6.5c8.2,1.6,16.8,11.8,17.2,20.8v0.2c0.7,13.4,1.8,35.9,11.5,55.8c3.7,7.6,6.5,15.7,8.2,24&#10;&#9;&#9;c0.1,0.4-0.1,0.8-0.5,0.9c-0.4,0.1-0.8-0.1-0.9-0.5c0,0,0-0.1,0-0.1c-1.7-8.2-4.5-16.1-8.1-23.6c-9.8-20.2-11-42.8-11.7-56.3V174&#10;&#9;&#9;c-0.4-8.2-8.5-18-16.1-19.5c-4.2-0.8-7.5,1.2-9.5,5.7c-6.8,15.1-3.8,91.6,0.6,124.2c3.1,23,20.6,65.6,20.8,66&#10;&#9;&#9;c0.1,0.4,0,0.8-0.4,0.9c0,0,0,0,0,0C366,351.3,365.9,351.3,365.8,351.3z"/>
	<path class="st1_qr-code-64-a4395" d="M447.1,378.7c-1.1-26-3.6-56.4-3.6-56.4l-95.6-3.7l-6.6,60.1L447.1,378.7z"/>
	<path class="st1_qr-code-64-a4395" d="M447.1,379.4H341.2c-0.2,0-0.4-0.1-0.5-0.2c-0.1-0.1-0.2-0.3-0.2-0.5l6.6-60.1c0-0.4,0.4-0.6,0.7-0.6l95.6,3.7&#10;&#9;&#9;c0.4,0,0.6,0.3,0.7,0.6c0,0.3,2.5,30.8,3.6,56.5c0,0.2-0.1,0.4-0.2,0.5C447.5,379.3,447.3,379.4,447.1,379.4z M342,378h104.4&#10;&#9;&#9;c-1-23.5-3.2-50.6-3.5-55l-94.4-3.6L342,378z"/>
</g>
<g id="QR_Scan_qr-code-64-a4395">
	<g id="yQXdNz_qr-code-64-a4395">
		<path class="st3_qr-code-64-a4395 targetColor" d="M260.6,190.4h4v-7.9h-12c0-1.4-2.1-2.6-2.1-4h10.2v-8.2l0,0c0.4,0,0.9,0.1,1.3,0.1h14.7v12.1h4v20.2h4.1l0,0&#10;&#9;&#9;&#9;v3.9l0,0h-4.1v4.1l0,0h-4.1v4h-11.9v-4h3.9v-4h-4v-3.9h-8l0,0l-0.1-4.1l0,0h8.1v-4.2h-3.9L260.6,190.4L260.6,190.4z M276.6,206.5&#10;&#9;&#9;&#9;v-7.9h-3.9v7.9H276.6z M276.6,190.6h-3.9v3.9h3.9V190.6z" style="fill: rgb(134, 104, 253);"/>
		<path class="st3_qr-code-64-a4395 targetColor" d="M236.4,246.7h-27.9v-28h27.9V246.7z M232.4,242.7v-20h-19.9v20H232.4z" style="fill: rgb(134, 104, 253);"/>
		<path class="st3_qr-code-64-a4395 targetColor" d="M264.7,246.7v-28h28v28H264.7z M288.7,222.7h-20v19.9h19.9L288.7,222.7z" style="fill: rgb(134, 104, 253);"/>
		<path class="st3_qr-code-64-a4395 targetColor" d="M208.4,162.4h28v28h-28V162.4z M232.4,166.4h-20v19.9h19.9L232.4,166.4z" style="fill: rgb(134, 104, 253);"/>
		<path class="st3_qr-code-64-a4395 targetColor" d="M256.5,234.7h4v-8h-8v-8h-4v3.9h-4v-7.9h-4.1l0,0l0.1,12.9v3h16L256.5,234.7L256.5,234.7z" style="fill: rgb(134, 104, 253);"/>
		<path class="st3_qr-code-64-a4395 targetColor" d="M224.4,206.5h4v4.1h4v-4h4v-4h-7.9v-4h-4.1v-4h-4v3.9h-4v-3.9h-8v3.9h4.1v4.1l0,0h12L224.4,206.5L224.4,206.5&#10;&#9;&#9;&#9;z" style="fill: rgb(134, 104, 253);"/>
		<path class="st3_qr-code-64-a4395 targetColor" d="M288.6,190.5c0-2.2,0.1-4.3,0.1-6.5c0-1.8,0-3.6,0-5.5h4v-8h-3.9v3.8h-3.9c-0.1,0.3-0.1,0.5-0.2,0.8&#10;&#9;&#9;&#9;c0,4.9,0,9.8,0,14.7c0,0.2,0,0.4,0.1,0.6L288.6,190.5L288.6,190.5z" style="fill: rgb(134, 104, 253);"/>
		<path class="st3_qr-code-64-a4395 targetColor" d="M256.6,202.7l-4-0.2v8h-4v4h11.9v-3.9h-3.9L256.6,202.7L256.6,202.7z" style="fill: rgb(134, 104, 253);"/>
		<path class="st3_qr-code-64-a4395 targetColor" d="M280.8,210.5v4h7.9v-3.9h4v-8h-4h0v3.9h-3.9l0,0v4.1L280.8,210.5L280.8,210.5z" style="fill: rgb(134, 104, 253);"/>
		<path class="st3_qr-code-64-a4395 targetColor" d="M212.5,202.7h-4v11.9h7.8v-4l0,0h-3.9L212.5,202.7L212.5,202.7z" style="fill: rgb(134, 104, 253);"/>
		<path class="st3_qr-code-64-a4395 targetColor" d="M260.7,166.6c-0.2-0.1-0.5-0.1-0.7-0.2h-10.9c-0.2,0-0.3,0-0.5,0.1v3.9h3.9v4l0,0h4.1v-4.1h4l0,0L260.7,166.6&#10;&#9;&#9;&#9;L260.7,166.6z" style="fill: rgb(134, 104, 253);"/>
		<path class="st3_qr-code-64-a4395 targetColor" d="M256.5,238.9c0-1.4,0-2.8,0-4.2l0,0h-7.9v11.9h3.9v-8L256.5,238.9L256.5,238.9z" style="fill: rgb(134, 104, 253);"/>
		<path class="st3_qr-code-64-a4395 targetColor" d="M244.6,186.7c0.1-0.1,0.2-0.2,0.3-0.2l7.5,0.1l0,0c0-1.5,0.1-3,0.1-4.5c0-2.6,0-5.2-0.1-7.8l0,0h-3.9v8.1&#10;&#9;&#9;&#9;h-3.9L244.6,186.7L244.6,186.7z" style="fill: rgb(134, 104, 253);"/>
		<path class="st3_qr-code-64-a4395 targetColor" d="M216.3,210.5h4.1v4h4v-8.1l0,0h-8.1L216.3,210.5L216.3,210.5z" style="fill: rgb(134, 104, 253);"/>
		<path class="st3_qr-code-64-a4395 targetColor" d="M288.6,190.4c0,2.7,0,5.4-0.1,8.1l0,0h4.1v-8L288.6,190.4L288.6,190.4z" style="fill: rgb(134, 104, 253);"/>
		<path class="st3_qr-code-64-a4395 targetColor" d="M272.7,162.4v3.9h8v-3.9H272.7z" style="fill: rgb(134, 104, 253);"/>
		<path class="st3_qr-code-64-a4395 targetColor" d="M244.7,202.7l-4.2-0.3c0,2.8,0,5.4,0,8l0,0h4.2L244.7,202.7L244.7,202.7z" style="fill: rgb(134, 104, 253);"/>
		<path class="st3_qr-code-64-a4395 targetColor" d="M240.6,162.5v7.9h3.9v-7.9H240.6z" style="fill: rgb(134, 104, 253);"/>
		<path class="st3_qr-code-64-a4395 targetColor" d="M256.5,198.7v-4.1h-7.9c0.1,1.4,0.1,2.7,0.2,4.1l0,0H256.5L256.5,198.7z" style="fill: rgb(134, 104, 253);"/>
		<path class="st3_qr-code-64-a4395 targetColor" d="M240.4,214.7v-4.2l0,0l-6.5,0.1h-1.4v4.1L240.4,214.7L240.4,214.7z" style="fill: rgb(134, 104, 253);"/>
		<path class="st3_qr-code-64-a4395 targetColor" d="M244.6,186.7l-4.1-0.3v8.1h4C244.6,191.8,244.6,189.2,244.6,186.7L244.6,186.7z" style="fill: rgb(134, 104, 253);"/>
		<path class="st3_qr-code-64-a4395 targetColor" d="M240.6,234.8v7.9h3.9v-7.9H240.6z" style="fill: rgb(134, 104, 253);"/>
		<path class="st3_qr-code-64-a4395 targetColor" d="M256.5,238.9c0,2.1,0.1,4.3,0.1,6.4v1.4h4v-8L256.5,238.9L256.5,238.9z" style="fill: rgb(134, 104, 253);"/>
		<path class="st3_qr-code-64-a4395 targetColor" d="M252.5,186.6v3.8h8.2l0,0v-3.8L252.5,186.6L252.5,186.6z" style="fill: rgb(134, 104, 253);"/>
		<path class="st3_qr-code-64-a4395 targetColor" d="M244.5,178.4v-3.9h-3.9v3.9H244.5z" style="fill: rgb(134, 104, 253);"/>
		<path class="st3_qr-code-64-a4395 targetColor" d="M260.7,166.6l3.9-0.2v-3.9h-3.9L260.7,166.6L260.7,166.6z" style="fill: rgb(134, 104, 253);"/>
		<path class="st3_qr-code-64-a4395 targetColor" d="M232.6,198.5h3.8v-3.9h-3.8V198.5z" style="fill: rgb(134, 104, 253);"/>
		<path class="st3_qr-code-64-a4395 targetColor" d="M288.6,202.7c0-1.4,0-2.8-0.1-4.2l0,0h-3.7v4.2l0,0L288.6,202.7L288.6,202.7z" style="fill: rgb(134, 104, 253);"/>
		<path class="st3_qr-code-64-a4395 targetColor" d="M284.8,162.4v3.9h3.8v-3.9H284.8z" style="fill: rgb(134, 104, 253);"/>
		<path class="st3_qr-code-64-a4395 targetColor" d="M256.6,218.7v3.8h3.9v-3.8H256.6z" style="fill: rgb(134, 104, 253);"/>
		<path class="st3_qr-code-64-a4395 targetColor" d="M228.4,238.7v-11.9h-11.9v11.9H228.4z" style="fill: rgb(134, 104, 253);"/>
		<path class="st3_qr-code-64-a4395 targetColor" d="M272.7,238.6h11.9v-12h-11.9V238.6z" style="fill: rgb(134, 104, 253);"/>
		<path class="st3_qr-code-64-a4395 targetColor" d="M228.4,170.5h-11.9v11.9h11.9V170.5z" style="fill: rgb(134, 104, 253);"/>
	</g>
	<path class="st3_qr-code-64-a4395 targetColor" d="M197.7,174.6c-0.8,0-1.4-0.6-1.4-1.4v-19.1c0-0.8,0.6-1.4,1.4-1.4H218c0.8,0,1.4,0.6,1.4,1.4&#10;&#9;&#9;c0,0.8-0.6,1.4-1.4,1.4h-19v17.7C199,173.9,198.4,174.5,197.7,174.6z" style="fill: rgb(134, 104, 253);"/>
	<path class="st3_qr-code-64-a4395 targetColor" d="M218,256.5h-20.3c-0.8,0-1.4-0.6-1.4-1.4c0,0,0,0,0,0V236c0-0.8,0.6-1.4,1.4-1.4c0.8,0,1.4,0.6,1.4,1.4v17.7&#10;&#9;&#9;h19c0.8,0,1.4,0.6,1.4,1.4C219.5,255.9,218.8,256.5,218,256.5L218,256.5z" style="fill: rgb(134, 104, 253);"/>
	<path class="st3_qr-code-64-a4395 targetColor" d="M303.5,174.6c-0.8,0-1.4-0.6-1.4-1.4v-17.7h-19c-0.8,0-1.4-0.6-1.4-1.4c0-0.8,0.6-1.4,1.4-1.4h20.4&#10;&#9;&#9;c0.8,0,1.4,0.6,1.4,1.4v19.1C304.8,173.9,304.2,174.5,303.5,174.6z" style="fill: rgb(134, 104, 253);"/>
	<path class="st3_qr-code-64-a4395 targetColor" d="M303.5,256.5h-20.4c-0.8,0-1.4-0.6-1.4-1.4c0-0.8,0.6-1.4,1.4-1.4h19V236c0-0.8,0.6-1.4,1.4-1.4&#10;&#9;&#9;c0.8,0,1.4,0.6,1.4,1.4v19.1C304.9,255.9,304.2,256.5,303.5,256.5z" style="fill: rgb(134, 104, 253);"/>
</g>
</svg>